inDegrees=no
num_controls=7
num_derivatives=13
num_iterations=132
num_multipliers=7
num_parameters=0
num_slacks=7
num_states=26
objective=0.448539
objective_accelerations=0.049521
objective_balance=0.007664
objective_effort=0.036960
objective_height=0.349455
objective_ligament=0.004939
solver_duration=1894.192852
status=Solve_Succeeded
success=true
DataType=double
version=3
OpenSimVersion=4.5
endheader
time	/jointset/ground_pelvis/pelvis_tilt/value	/jointset/ground_pelvis/pelvis_tx/value	/jointset/ground_pelvis/pelvis_ty/value	/jointset/hip_l/hip_flexion_l/value	/jointset/hip_l/hip_adduction_l/value	/jointset/hip_l/hip_rotation_l/value	/jointset/back/lumbar_extension/value	/jointset/patellofemoral_l/patellar_flexion_l/value	/jointset/knee_l/knee_flexion_l/value	/jointset/knee_l/knee_adduction_l/value	/jointset/knee_l/knee_rotation_l/value	/jointset/ankle_l/ankle_angle_l/value	/jointset/subtalar_l/subtalar_angle_l/value	/jointset/ground_pelvis/pelvis_tilt/speed	/jointset/ground_pelvis/pelvis_tx/speed	/jointset/ground_pelvis/pelvis_ty/speed	/jointset/hip_l/hip_flexion_l/speed	/jointset/hip_l/hip_adduction_l/speed	/jointset/hip_l/hip_rotation_l/speed	/jointset/back/lumbar_extension/speed	/jointset/patellofemoral_l/patellar_flexion_l/speed	/jointset/knee_l/knee_flexion_l/speed	/jointset/knee_l/knee_adduction_l/speed	/jointset/knee_l/knee_rotation_l/speed	/jointset/ankle_l/ankle_angle_l/speed	/jointset/subtalar_l/subtalar_angle_l/speed	/forceset/tau_hip_flexion_l	/forceset/tau_hip_adduction_l	/forceset/tau_hip_rotation_l	/forceset/tau_knee_flexion_l	/forceset/tau_ankle_angle_l	/forceset/tau_subtalar_angle_l	/forceset/tau_lumbar_extension	lambda_cid13_p0	lambda_cid13_p1	lambda_cid13_p2	lambda_cid13_p3	lambda_cid13_p4	lambda_cid13_p5	lambda_cid14_p0	/jointset/ground_pelvis/pelvis_tilt/accel	/jointset/ground_pelvis/pelvis_tx/accel	/jointset/ground_pelvis/pelvis_ty/accel	/jointset/hip_l/hip_flexion_l/accel	/jointset/hip_l/hip_adduction_l/accel	/jointset/hip_l/hip_rotation_l/accel	/jointset/back/lumbar_extension/accel	/jointset/patellofemoral_l/patellar_flexion_l/accel	/jointset/knee_l/knee_flexion_l/accel	/jointset/knee_l/knee_adduction_l/accel	/jointset/knee_l/knee_rotation_l/accel	/jointset/ankle_l/ankle_angle_l/accel	/jointset/subtalar_l/subtalar_angle_l/accel	gamma_cid13_p0	gamma_cid13_p1	gamma_cid13_p2	gamma_cid13_p3	gamma_cid13_p4	gamma_cid13_p5	gamma_cid14_p0
0	-0.1599709819413203	0.05850158820920032	0.8979921565628266	0.3774924667018715	-0.259232825249524	-0.2713420002406408	-0.01265067647494873	0.03223648243721516	0.03223648243721463	-0.1745328945831889	0.172973560283863	-0.04231377076293093	-0.009376151240843669	0	0	0	0	0	0	0	0	0	0	0	0	0	0.1516143143877997	-0.07567302962826494	-0.05169488342074493	-0.3074344426897833	0.3124361567714445	-0.0497313033587536	-0.09515009007628294	57.83699769079371	5.154130136020494	5.991788427921342	-5.25002155025249	-590.3115223908512	-67.84785723629099	-39.02520166864269	-4.362740263240776	-2.125959476499153	-1.105756070391474	12.42342119829556	-1.224523762761944	3.058067325129481	-5.650407843021785	8.844490393481239	8.844490393483403	0.07746401814750592	0.007619685907041651	0.8749277687004381	-1.051332108265716	-5.693333528546797e-08	1.20794690052692e-07	1.055607277810324e-07	2.637014384878483e-08	-6.588337260155332e-09	-3.111397531000948e-08	-1.425238375065027e-08
0.01	-0.1601812868462521	0.05839541110754819	0.8979380350770648	0.3780993117852383	-0.2592937204544184	-0.2711904964339341	-0.0129353459015066	0.0326687567500827	0.03266875675006475	-0.1745309168258448	0.1729719645798145	-0.04227395594982513	-0.009429278120315472	-0.04177153975338743	-0.02126002273485784	-0.01079029089515977	0.120880103210431	-0.01210356508037367	0.03007208798716833	-0.05665187632488018	0.08608913134818469	0.08608913134818677	0.000415419443992655	-0.0002292853637441753	0.007783159596276686	-0.01059099554773953	0.1415997583165153	-0.08453836621258319	-0.04919554212117255	-0.2917158429413291	0.2864974824539805	-0.03156796607744319	-0.08788107217503988	50.15724718312571	-1.137029825661856	6.706343928784253	-0.06447918445460146	-590.875314494092	-79.38100582351211	-39.03747650888656	-4.040953282715193	-2.129708758566971	-1.060565978196653	11.84695876705227	-1.19198345718506	2.947467121098889	-5.630276179180939	8.436267672497905	8.436267672496859	0.02659474772572455	-0.02473343066052365	0.7030349847717642	-1.057856634204401	-5.861553156073012e-08	1.168240925382542e-07	1.130990793464579e-07	2.719853685073011e-08	-8.07559699248615e-08	6.420155167508819e-09	-1.766162039486496e-08
0.02	-0.1608006256389828	0.05807589676122991	0.8977770306065278	0.3799002886776372	-0.2594733934254186	-0.2707451342302383	-0.01377807382170522	0.03395095100981269	0.03395095100981249	-0.1745241821058877	0.1729707698655306	-0.04216170455482041	-0.009587289626499972	-0.08180677755987065	-0.04266744893323002	-0.02137659695504136	0.2388263618062772	-0.02375555322115144	0.05877167939786972	-0.1116116987281503	0.1699839893768028	0.1699839893767958	0.0009513924960022918	8.019794669419277e-05	0.01448731637977323	-0.02097692534253592	0.1315852022452328	-0.09340370279689918	-0.046696200821424	-0.2759972431929032	0.2605588081365148	-0.01340462879613331	-0.08061205427379563	42.55322847944591	-7.440509695700527	7.421793153205232	5.012720091583164	-590.2643330680932	-90.81197631895074	-39.07397229668897	-4.015479873859944	-2.155440169202004	-1.064959103335849	11.83665227537858	-1.134208374842913	2.783568009836093	-5.311997058699768	8.405635729567928	8.40563572956785	0.1015747397506098	0.1153734207435662	0.6591272061443897	-1.010318957677241	-6.029772783599227e-08	1.128534950238164e-07	1.206374309118833e-07	2.802692985267539e-08	-1.549236025895677e-07	4.395428564502712e-08	-2.107085703907964e-08
0.03	-0.1618128523319069	0.05754338074115287	0.8975110389606655	0.3828654105792157	-0.2597672708821083	-0.2700183535566292	-0.01516019669353264	0.03606137339428264	0.03606137339427875	-0.1745114806667666	0.1729742899201065	-0.04198534385518048	-0.009847535501252825	-0.1204340725057016	-0.0636772380251516	-0.03179630175310996	0.3535869871450628	-0.03494880935302596	0.08648908554739934	-0.1643945660841221	0.2517380501386474	0.2517380501386313	0.00158729566920497	0.0005955302854620365	0.02084467235821237	-0.03098920762665881	0.1265469557043799	-0.0878355524655946	-0.04617644453213295	-0.2729227341949078	0.2597015311910157	-0.01680807468195715	-0.07618406415041341	42.19356649463154	-6.009467396619435	7.319346443582869	4.065112690479583	-590.3132849716375	-87.13884588906502	-39.13373215236813	-3.755688179108502	-2.049965111908614	-1.02669288279083	11.20410268453303	-1.10123075141721	2.751504401189496	-5.19868514100366	8.005929870725064	8.005929870723772	0.04438468073339469	0.01535498651793757	0.6330140421557356	-0.9842574712987983	-8.530138168422944e-08	1.347145240506153e-07	1.549456638739239e-07	4.858380509267037e-08	-2.635804552501026e-07	3.962167647197947e-08	-2.641803125015282e-08
